<?xml version="1.0" standalone="no"?>
<!DOCTYPE svg PUBLIC "-//W3C//DTD SVG 20010904//EN"
 "http://www.w3.org/TR/2001/REC-SVG-20010904/DTD/svg10.dtd">
<svg version="1.0" xmlns="http://www.w3.org/2000/svg"
 width="1080.000000pt" height="1080.000000pt" viewBox="0 0 1080.000000 1080.000000"
 preserveAspectRatio="xMidYMid meet">

<g transform="translate(0.000000,1080.000000) scale(0.100000,-0.100000)"
fill="#000000" stroke="none">
<path d="M4365 8841 c-40 -10 -111 -56 -129 -83 -8 -13 -20 -43 -26 -68 -10
-38 -9 -56 8 -118 l20 -73 -21 -14 c-12 -8 -29 -15 -39 -15 -24 0 -31 -15 -23
-51 9 -39 27 -45 71 -24 19 9 41 14 47 12 7 -3 27 -43 46 -89 60 -148 112
-273 121 -293 5 -11 19 -44 31 -72 24 -59 36 -64 87 -33 36 22 38 29 18 73
-14 31 -67 157 -128 307 -16 41 -37 92 -46 113 -9 23 -12 41 -6 46 5 5 42 21
82 37 61 23 72 31 72 51 0 13 -9 32 -20 43 -20 20 -21 20 -58 2 -20 -10 -56
-24 -80 -32 -39 -12 -43 -12 -57 6 -24 32 -30 111 -10 140 18 27 68 52 122 61
30 5 33 9 33 38 0 45 -34 55 -115 36z"/>
<path d="M4695 8811 c-26 -6 -30 -10 -27 -36 2 -17 8 -34 13 -39 5 -6 9 -24 9
-41 0 -33 -28 -55 -70 -55 -26 0 -32 -14 -24 -56 7 -39 0 -38 95 -18 25 6 27
3 43 -63 9 -37 21 -90 26 -118 5 -27 14 -61 19 -75 5 -14 14 -51 21 -82 12
-63 40 -110 83 -142 42 -31 176 -29 234 4 51 28 59 52 28 88 -23 26 -23 27
-44 8 -28 -26 -113 -34 -144 -13 -25 16 -56 92 -75 182 -5 28 -18 82 -27 120
-10 39 -18 83 -19 100 -1 27 2 30 44 37 25 4 64 15 86 23 l42 16 -10 39 c-10
38 -25 49 -42 33 -12 -12 -140 -31 -149 -23 -5 4 -14 32 -20 61 -13 59 -26 65
-92 50z"/>
<path d="M5167 8733 c13 -38 29 -86 34 -108 6 -21 14 -44 18 -50 4 -5 13 -28
19 -50 18 -71 124 -370 135 -383 6 -8 28 -12 60 -10 l50 3 32 80 c59 145 167
400 170 404 6 5 55 -109 55 -126 0 -8 6 -29 14 -46 13 -29 33 -85 88 -246 24
-72 33 -81 84 -81 42 0 74 18 74 43 1 7 9 30 20 52 11 22 19 47 20 56 0 8 4
19 9 25 5 5 21 41 36 79 14 39 30 79 35 90 5 11 21 49 35 85 14 36 30 74 35
85 28 63 50 119 50 126 0 14 -86 11 -98 -3 -5 -7 -22 -44 -37 -83 -15 -38 -36
-89 -46 -112 -11 -23 -19 -46 -19 -52 0 -5 -6 -22 -14 -38 -8 -15 -24 -53 -36
-83 -41 -104 -54 -130 -64 -127 -9 3 -37 75 -55 142 -5 17 -18 57 -29 90 -12
33 -37 107 -57 165 -20 57 -41 108 -48 112 -7 4 -29 8 -50 8 -45 0 -27 35
-187 -355 -23 -55 -47 -113 -54 -128 l-13 -28 -17 25 c-9 14 -16 31 -16 37 0
18 -142 442 -153 457 -5 6 -31 12 -57 12 l-48 0 25 -67z"/>
<path d="M6398 8633 c-13 -3 -15 -12 -11 -41 3 -20 8 -39 10 -42 3 -3 48 -5
101 -6 113 -1 170 -21 221 -79 27 -31 31 -43 31 -93 0 -77 -10 -85 -74 -63
-145 52 -184 61 -262 61 -77 0 -82 -1 -121 -35 -73 -62 -80 -166 -18 -248 69
-90 213 -129 333 -89 35 12 35 10 15 -46 -3 -7 13 -20 38 -31 52 -23 64 -17
80 43 6 22 15 50 20 61 16 39 86 261 98 311 10 43 10 61 -4 106 -35 122 -174
199 -354 197 -47 -1 -94 -3 -103 -6z m110 -353 c76 -22 184 -58 189 -64 2 -2
-1 -25 -8 -51 -10 -40 -19 -52 -57 -76 -82 -52 -203 -33 -265 40 -31 37 -34
69 -11 112 12 24 55 55 82 59 1 0 33 -9 70 -20z"/>
<path d="M7081 8223 c-108 -185 -94 -162 -170 -290 -34 -56 -61 -104 -61 -107
0 -5 92 -57 96 -54 1 2 42 71 90 154 103 174 116 192 165 222 48 29 134 30
188 2 30 -15 41 -17 49 -7 14 18 44 78 40 82 -40 34 -156 55 -209 36 -41 -14
-44 -10 -25 28 9 16 16 37 16 45 0 16 -48 46 -73 46 -8 0 -55 -70 -106 -157z"/>
<path d="M3844 8276 c-110 -36 -194 -106 -238 -200 -20 -43 -26 -70 -26 -124
0 -102 29 -171 105 -248 53 -54 70 -65 134 -84 82 -25 125 -23 215 10 66 25
152 100 192 168 26 43 28 55 28 147 0 77 -4 108 -18 134 -52 99 -132 172 -208
192 -66 17 -139 19 -184 5z m187 -126 c76 -52 119 -133 119 -223 0 -55 -4 -70
-29 -103 -71 -96 -144 -128 -246 -105 -76 17 -151 90 -179 174 -19 55 -19 60
-3 110 23 73 58 117 120 150 46 26 60 28 118 24 48 -3 76 -11 100 -27z"/>
<path d="M7568 8000 c-134 -23 -268 -188 -268 -329 1 -171 171 -351 333 -351
l57 0 0 44 0 43 -51 6 c-133 16 -241 149 -226 279 6 45 24 88 38 88 12 0 209
-171 325 -282 l70 -68 33 32 c19 18 45 58 60 88 34 74 36 191 3 261 -28 59
-105 137 -163 165 -51 25 -143 35 -211 24z m146 -101 c51 -14 121 -80 142
-135 22 -57 14 -148 -15 -177 -19 -20 -19 -20 -48 2 -15 13 -76 67 -134 122
-59 54 -117 108 -130 119 l-24 20 25 20 c47 37 115 48 184 29z"/>
<path d="M3135 7968 c-88 -32 -210 -146 -264 -248 -28 -52 -33 -72 -33 -129
-1 -56 4 -76 26 -113 15 -25 43 -57 64 -71 107 -75 167 -62 390 83 152 100
213 104 269 21 29 -43 29 -60 -2 -126 -50 -104 -159 -198 -269 -230 -45 -13
-54 -32 -36 -79 9 -25 14 -28 44 -23 69 11 168 70 243 144 161 160 187 323 67
432 -112 104 -187 85 -488 -122 -19 -13 -47 -20 -83 -21 -52 -1 -57 1 -89 38
-24 27 -34 49 -34 72 0 90 94 208 214 267 42 20 76 39 76 42 0 2 -9 20 -21 39
-22 39 -28 40 -74 24z"/>
<path d="M8545 7245 c-44 -25 -87 -47 -95 -51 -8 -3 -23 -10 -33 -15 -10 -5
-125 -64 -255 -130 -130 -66 -245 -128 -254 -137 -15 -14 -15 -21 -5 -40 7
-13 66 -128 131 -256 66 -128 125 -241 132 -250 11 -16 15 -15 53 5 23 11 41
23 41 24 0 2 -33 67 -72 145 -169 327 -158 303 -141 315 33 24 224 116 235
113 12 -4 52 -74 139 -248 34 -69 64 -126 65 -128 4 -6 84 39 84 47 0 5 -43
93 -96 196 -91 176 -95 187 -77 200 10 8 27 17 38 21 11 4 25 11 32 16 7 5 44
25 82 43 l70 34 22 -37 c12 -20 51 -94 87 -165 35 -70 68 -130 73 -133 5 -3 9
-14 9 -24 0 -10 10 -31 23 -46 l23 -26 43 21 c30 16 40 26 33 34 -5 7 -67 126
-138 265 -106 208 -132 252 -149 251 -11 0 -56 -20 -100 -44z"/>
<path d="M2299 6950 c-15 -49 -6 -63 59 -86 26 -9 56 -20 67 -25 11 -4 58 -23
105 -40 72 -28 82 -34 66 -43 -92 -54 -150 -124 -167 -203 -20 -88 -20 -118
-6 -174 28 -104 73 -156 186 -215 48 -25 65 -28 150 -28 86 0 101 3 149 28 59
32 106 82 142 153 21 41 25 62 24 138 0 53 -5 100 -13 113 -16 30 -11 35 24
22 36 -14 59 -6 73 26 26 56 27 54 -133 114 -47 17 -101 38 -250 95 -36 14
-94 36 -130 50 -36 14 -95 37 -132 51 -38 14 -89 34 -115 45 -71 29 -85 26
-99 -21z m515 -261 c88 -24 156 -96 171 -180 10 -56 -11 -140 -46 -182 -41
-50 -116 -87 -174 -87 -54 0 -138 33 -178 69 -90 82 -91 238 -2 327 61 60 138
78 229 53z"/>
<path d="M8790 6389 c-19 -5 -69 -15 -110 -24 -41 -8 -106 -22 -145 -31 -38
-8 -93 -19 -122 -24 -29 -4 -67 -13 -85 -18 -18 -6 -55 -13 -82 -17 l-48 -7 6
-46 c3 -25 10 -50 15 -55 6 -6 31 -5 63 2 156 34 189 41 260 52 170 26 267
-47 270 -202 1 -56 -2 -73 -22 -102 -34 -49 -72 -65 -255 -103 -252 -53 -230
-45 -227 -85 1 -19 4 -40 7 -46 6 -17 77 -17 145 1 30 8 75 17 100 21 76 12
193 44 236 65 94 44 135 140 117 274 -9 59 -19 86 -48 130 -21 31 -51 64 -67
72 -32 16 -29 34 5 34 42 0 50 13 42 69 -4 28 -10 50 -13 50 -4 -1 -23 -5 -42
-10z"/>
<path d="M2380 5983 c-71 -36 -106 -89 -124 -183 -12 -59 -11 -80 0 -136 8
-36 22 -78 32 -93 37 -53 37 -53 -9 -50 l-44 4 0 -55 0 -55 120 -8 c66 -4 152
-12 190 -18 39 -6 127 -13 197 -16 l127 -6 6 37 c4 19 5 42 2 50 -6 15 -9 15
-232 36 -192 18 -261 55 -290 154 -30 102 11 210 90 240 49 19 73 19 323 -4
163 -15 164 -14 160 55 l-3 39 -95 13 c-52 6 -162 15 -245 18 l-150 7 -55 -29z"/>
<path d="M8158 5553 c-66 -78 -92 -170 -92 -323 0 -108 3 -130 21 -165 19 -36
59 -79 104 -113 45 -34 185 -50 657 -79 l93 -5 -3 48 c-3 47 -4 48 -45 59
l-41 10 38 42 c57 65 84 146 78 241 -8 135 -70 228 -189 281 -66 30 -187 29
-255 -3 -59 -27 -141 -107 -151 -145 -3 -13 -12 -36 -19 -50 -19 -36 -18 -182
1 -227 8 -19 24 -47 35 -61 31 -40 26 -46 -38 -40 -72 6 -133 36 -164 79 -21
30 -23 44 -23 143 0 109 0 111 42 192 l41 82 -33 25 c-40 31 -38 31 -57 9z
m563 -103 c67 -25 105 -62 135 -129 28 -63 30 -90 8 -157 -21 -63 -55 -108
-105 -139 -30 -20 -52 -25 -102 -25 -96 0 -158 36 -200 115 -32 60 -30 175 5
230 34 54 64 80 118 104 58 25 78 25 141 1z"/>
<path d="M2455 5201 c-115 -55 -175 -143 -183 -264 -5 -85 17 -160 66 -225 44
-59 54 -67 121 -98 50 -24 62 -26 155 -21 76 3 111 9 142 25 62 32 120 93 150
158 24 50 28 72 27 145 0 117 -27 191 -96 260 l-50 50 -28 -33 c-15 -18 -28
-36 -29 -39 0 -3 14 -18 31 -35 84 -81 102 -231 39 -326 -31 -46 -105 -97
-121 -81 -4 4 -13 38 -18 73 -6 36 -15 90 -20 120 -11 59 -36 207 -46 278 -7
41 -8 42 -43 42 -21 0 -64 -13 -97 -29z m88 -188 c10 -54 25 -136 33 -183 25
-132 24 -134 -13 -138 -32 -3 -101 26 -137 57 -10 9 -29 38 -43 66 -21 41 -25
59 -20 107 6 66 43 129 96 165 59 40 65 34 84 -74z"/>
<path d="M8226 4731 c-9 -17 -16 -41 -16 -54 0 -21 8 -26 63 -41 34 -9 85 -23
112 -30 28 -8 79 -21 115 -31 70 -18 176 -48 254 -71 73 -21 81 -19 94 25 7
21 12 43 12 48 0 13 -46 33 -100 44 -25 4 -76 17 -115 28 -38 12 -90 26 -115
32 -25 6 -58 15 -75 20 -16 6 -64 19 -105 30 -41 11 -83 22 -92 25 -12 3 -22
-4 -32 -25z"/>
<path d="M9005 4533 c-43 -47 -29 -106 28 -117 19 -4 42 -4 51 0 27 10 44 55
35 89 -17 59 -72 73 -114 28z"/>
<path d="M2690 4477 c-29 -15 -32 -53 -7 -108 33 -77 57 -138 57 -151 0 -7 9
-24 19 -38 19 -24 20 -24 55 -7 20 9 36 20 36 24 0 5 -8 31 -19 58 -10 28 -33
88 -50 135 -28 75 -44 100 -61 100 -3 0 -16 -6 -30 -13z"/>
<path d="M8163 4468 c-28 -31 -36 -63 -20 -76 7 -6 89 -49 182 -96 149 -75
173 -90 197 -127 33 -51 43 -104 28 -160 -17 -63 -47 -107 -93 -136 -70 -44
-101 -35 -391 108 -66 32 -120 58 -121 56 -22 -34 -44 -92 -38 -98 27 -27 365
-183 418 -194 128 -25 225 26 286 150 30 61 31 69 27 159 -2 52 -1 94 2 92 3
-1 17 -8 32 -15 36 -18 51 -10 70 37 l16 40 -187 93 c-102 50 -230 114 -283
140 -54 27 -99 49 -101 49 -2 0 -13 -10 -24 -22z"/>
<path d="M3084 4195 c-15 -24 -15 -26 16 -56 54 -55 64 -108 29 -153 -20 -25
-58 -50 -183 -120 -28 -15 -70 -41 -93 -56 -75 -51 -77 -50 -125 35 -39 68
-45 75 -68 69 -31 -7 -50 -22 -50 -39 0 -7 18 -44 40 -81 l41 -69 -24 -20
c-14 -11 -38 -28 -56 -37 -36 -20 -38 -31 -11 -75 23 -39 42 -41 84 -10 54 41
64 40 91 -2 32 -51 41 -56 70 -37 30 20 32 48 4 92 l-20 33 48 25 c26 14 66
37 88 51 22 14 49 29 60 34 45 20 141 82 173 113 37 35 62 83 62 121 0 45 -32
116 -72 161 -46 53 -79 60 -104 21z"/>
<path d="M3290 3713 c-186 -171 -243 -234 -263 -288 -21 -61 -22 -111 -2 -149
8 -15 15 -34 15 -41 0 -15 96 -117 134 -140 15 -10 53 -22 83 -26 30 -4 57
-10 60 -13 3 -3 -6 -21 -21 -41 l-27 -35 33 -35 33 -35 75 66 c41 37 134 122
205 189 72 67 146 136 165 153 39 35 37 47 -16 88 l-29 23 -135 -125 c-74 -69
-152 -134 -172 -145 -79 -41 -182 -18 -247 57 -38 43 -51 73 -51 119 0 71 -1
70 280 333 l65 61 -40 40 -40 40 -105 -96z"/>
<path d="M7755 3722 c-105 -52 -199 -174 -220 -285 -11 -58 0 -77 45 -77 41 0
43 2 54 70 17 99 127 205 225 217 53 6 130 -12 137 -32 6 -14 -54 -88 -248
-307 -49 -55 -88 -103 -88 -107 0 -10 64 -61 76 -61 4 0 15 -6 23 -13 44 -37
163 -47 249 -22 64 19 148 94 187 167 37 71 45 175 19 247 -26 74 -81 140
-153 185 -61 38 -69 40 -155 44 -84 3 -96 1 -151 -26z m352 -218 c29 -50 31
-134 4 -190 -38 -79 -112 -125 -200 -123 -50 1 -113 19 -118 35 -2 5 23 40 54
76 32 36 94 107 138 157 43 50 84 90 90 88 5 -2 20 -21 32 -43z"/>
<path d="M7245 3243 c-132 -41 -262 -177 -253 -266 3 -30 6 -32 42 -32 36 0
40 3 51 34 14 44 67 105 118 139 37 24 52 27 128 27 75 0 90 -3 122 -25 20
-14 37 -30 37 -36 0 -10 -100 -82 -352 -257 -85 -58 -85 -60 -48 -107 33 -41
71 -72 129 -103 53 -29 203 -26 262 3 100 51 162 126 185 227 15 63 16 79 4
130 -47 207 -234 324 -425 266z m314 -264 c17 -49 13 -130 -8 -169 -10 -19
-39 -53 -66 -75 -47 -40 -48 -40 -129 -40 -74 0 -84 2 -119 29 -21 16 -36 34
-34 40 4 11 45 43 136 106 28 19 84 59 124 87 39 29 75 53 79 53 3 0 11 -14
17 -31z"/>
<path d="M3875 3172 c-51 -13 -69 -24 -121 -76 -93 -93 -109 -130 -109 -252
l0 -102 39 -56 c52 -76 134 -139 210 -162 125 -39 228 -13 321 81 82 82 110
152 102 263 -6 94 -30 147 -97 211 -53 51 -111 83 -183 100 -59 14 -86 12
-162 -7z m213 -114 c52 -26 88 -68 113 -130 25 -61 23 -89 -12 -163 -91 -193
-302 -209 -416 -31 -64 99 -2 266 122 330 45 24 139 21 193 -6z"/>
<path d="M6732 2950 c-18 -11 -31 -24 -29 -28 3 -4 37 -83 76 -175 61 -144 71
-176 71 -227 0 -51 -4 -64 -33 -102 -18 -24 -47 -49 -65 -57 -17 -8 -34 -22
-37 -32 -7 -22 20 -89 36 -89 7 0 37 18 67 41 37 28 61 56 77 90 l22 49 17
-24 c9 -14 16 -30 16 -35 0 -21 23 -23 61 -6 56 26 61 5 -76 310 -7 17 -32 75
-55 130 -24 55 -46 105 -50 110 -4 6 -10 22 -14 38 -8 33 -36 36 -84 7z"/>
<path d="M4636 2728 c-26 -73 -54 -145 -62 -160 -8 -14 -14 -32 -14 -39 0 -6
-16 -31 -35 -55 -57 -69 -114 -83 -230 -59 -29 6 -31 4 -41 -34 -16 -57 -3
-71 72 -78 48 -4 70 -1 109 16 26 12 50 19 53 16 3 -3 0 -22 -6 -44 -16 -52
-17 -49 28 -62 58 -18 52 -27 150 241 24 63 53 144 67 180 13 36 31 83 39 105
9 22 18 47 20 55 4 11 -9 20 -44 33 -27 9 -52 17 -54 17 -3 0 -26 -60 -52
-132z"/>
<path d="M6020 2723 c-17 -22 -20 -36 -16 -67 4 -22 9 -43 12 -48 3 -4 30 -8
60 -8 53 0 55 1 69 35 25 59 -9 114 -72 115 -23 0 -38 -8 -53 -27z"/>
<path d="M5360 2700 c-9 -5 -19 -47 -26 -107 -18 -139 -32 -215 -42 -225 -5
-5 -45 -2 -93 7 -131 24 -323 52 -331 48 -5 -2 -8 -24 -8 -47 0 -43 1 -44 43
-54 23 -6 80 -16 127 -22 119 -16 240 -37 246 -43 7 -7 -12 -174 -28 -245
l-12 -54 -50 5 c-59 4 -174 21 -302 43 -116 20 -127 18 -138 -29 -5 -20 -7
-39 -4 -43 9 -9 136 -33 208 -40 36 -3 81 -10 101 -15 19 -5 76 -14 125 -19
49 -6 105 -13 126 -16 29 -5 37 -2 42 13 5 17 26 157 47 308 17 127 37 267 74
498 3 17 0 29 -8 32 -32 9 -85 12 -97 5z"/>
</g>
</svg>
